<svg xmlns="http://www.w3.org/2000/svg" width="24" height="24" viewBox="0 0 24 24"><g stroke="#000" stroke-linecap="round" stroke-linejoin="round" stroke-miterlimit="10" fill="none"><path d="M14.5 13.613c0 .553-.448.887-1 .887h-3c-.553 0-1-.334-1-.887v-4.001c0-.551.447-1.112 1-1.112h3c.552 0 1 .562 1 1.112v4.001zM14.389 9.156l7.794-2.604c.306-.103.641-.051.902.138.26.188.415.489.415.812v8.224c0 .322-.155.625-.415.813-.262.188-.597.239-.902.137l-7.794-2.605M9.613 9.149l-7.798-2.597c-.305-.103-.64-.051-.9.138-.262.187-.415.489-.415.811v8.224c0 .322.153.625.414.813.262.188.597.239.901.137l7.798-2.6M7.5 11.5h2M16.5 11.5h-2"/></g></svg>