<svg xmlns="http://www.w3.org/2000/svg" width="24" height="24" viewBox="0 0 24 24"><g stroke="#000" stroke-linecap="round" stroke-linejoin="round" stroke-miterlimit="10" fill="none"><path d="M23.5 18c0 .825-.675 1.5-1.5 1.5h-20c-.825 0-1.5-.675-1.5-1.5v-12c0-.825.675-1.5 1.5-1.5h20c.825 0 1.5.675 1.5 1.5v12zM20 19.5h-16l3-3h10z"/><circle cx="5.5" cy="12" r="2"/><path d="M9.5 10.5h5v2h-5zM5.5 11v-1M4.5 12h-1M5.5 13v1M6.5 12h1"/><circle cx="18.5" cy="12" r="2"/><path d="M18.5 11v-1M17.5 12h-1M18.5 13v1M19.5 12h1M3.5 6.5h17"/></g></svg>